<?xml version="1.0" standalone="no"?><!DOCTYPE svg PUBLIC "-//W3C//DTD SVG 1.1//EN" "http://www.w3.org/Graphics/SVG/1.1/DTD/svg11.dtd"><svg t="1744601577425" class="icon" viewBox="0 0 1024 1024" version="1.1" xmlns="http://www.w3.org/2000/svg" p-id="3093" xmlns:xlink="http://www.w3.org/1999/xlink" width="200" height="200"><path d="M915.2 341.333333l-6.4-12.8 44.8-38.4c4.266667-4.266667 6.4-6.4 6.4-10.666666l8.533333-4.266667 10.666667 29.866667-8.533333 4.266666v-2.133333c0-2.133333-2.133333-2.133333-2.133334-4.266667h-4.266666s0 2.133333-2.133334 2.133334l-8.533333 6.4 6.4 19.2h10.666667l2.133333-2.133334c2.133333 0 4.266667 0 4.266667-2.133333s0-2.133333-2.133334-6.4l8.533334-2.133333 10.666666 25.6-8.533333 2.133333c-2.133333-4.266667-6.4-6.4-14.933333-4.266667h-55.466667z m12.8-10.666666h23.466667l-6.4-12.8-17.066667 12.8z m21.333333 91.733333v-6.4c2.133333-2.133333 6.4-2.133333 10.666667-4.266667l27.733333-8.533333c6.4 0 8.533333-2.133333 10.666667 0 2.133333 0 4.266667 2.133333 4.266667 4.266667l8.533333-2.133334-6.4-23.466666-8.533333 2.133333v6.4c-2.133333 2.133333-4.266667 4.266667-10.666667 4.266667l-34.133333 8.533333 46.933333-42.666667-2.133333-12.8-49.066667 12.8c-6.4 2.133333-10.666667 2.133333-12.8 2.133334 0 0-2.133333-2.133333-2.133333-4.266667l-10.666667 2.133333 8.533333 23.466667 6.4-2.133333c0-4.266667 0-6.4 2.133334-6.4 0-2.133333 4.266667-4.266667 10.666666-4.266667l19.2-6.4-36.266666 34.133333 8.533333 25.6 8.533333-2.133333zM64 541.866667c2.133333 2.133333 0 4.266667 0 6.4-2.133333 0-6.4 2.133333-10.666667 2.133333l-29.866666 2.133333c-4.266667 2.133333-8.533333 2.133333-10.666667 0-2.133333 0-2.133333-2.133333-2.133333-4.266666H2.133333l6.4 55.466666 25.6 6.4 2.133334-6.4c-6.4-2.133333-10.666667-6.4-14.933334-10.666666-4.266667-4.266667-6.4-8.533333-8.533333-12.8 0-4.266667 0-6.4 2.133333-6.4 0-2.133333 4.266667-2.133333 6.4-2.133334l17.066667-2.133333 2.133333 2.133333c0 2.133333-2.133333 4.266667-2.133333 6.4-2.133333 2.133333-6.4 4.266667-10.666667 4.266667l2.133334 6.4 32-4.266667v-6.4h-10.666667c0-2.133333-2.133333-4.266667-2.133333-6.4v-4.266666h10.666666c2.133333-2.133333 6.4-2.133333 6.4 0 2.133333 0 2.133333 2.133333 2.133334 6.4 2.133333 4.266667 0 8.533333-2.133334 12.8-2.133333 4.266667-6.4 8.533333-10.666666 12.8l4.266666 6.4 21.333334-12.8-6.4-53.333334-10.666667 2.133334z m-10.666667-74.666667l-2.133333 6.4c4.266667 2.133333 8.533333 4.266667 10.666667 8.533333 2.133333 2.133333 2.133333 6.4 2.133333 10.666667L23.466667 490.666667c-6.4 0-8.533333 0-10.666667-2.133334-2.133333 0-2.133333-2.133333-2.133333-4.266666l-8.533334-2.133334-2.133333 36.266667h8.533333c0-4.266667 2.133333-6.4 2.133334-6.4 2.133333 0 6.4-2.133333 12.8-2.133333H64v2.133333c0 4.266667-2.133333 6.4-4.266667 10.666667-2.133333 2.133333-6.4 4.266667-12.8 6.4l2.133334 6.4 23.466666-6.4 2.133334-53.333334-21.333334-8.533333z m27.733334-27.733333l-2.133334 14.933333-57.6 8.533333c-6.4 0-10.666667 2.133333-10.666666 6.4l-10.666667-2.133333 6.4-32 8.533333 2.133333V443.733333c2.133333 0 2.133333 2.133333 4.266667 2.133334H21.333333l10.666667-2.133334 4.266667-19.2-8.533334-4.266666h-2.133333c-2.133333-2.133333-4.266667 0-4.266667 0-2.133333 0-2.133333 2.133333-2.133333 4.266666H8.533333l6.4-27.733333 8.533334 2.133333c0 4.266667 2.133333 8.533333 8.533333 12.8h2.133333l46.933334 27.733334z m-17.066667 2.133333l-19.2-12.8-2.133333 14.933333 21.333333-2.133333z m19.2-87.466667l-4.266667 4.266667c4.266667 4.266667 6.4 8.533333 8.533334 12.8 0 2.133333 0 6.4-2.133334 10.666667l-38.4-12.8c-4.266667-2.133333-8.533333-2.133333-8.533333-4.266667-2.133333-2.133333-2.133333-4.266667-2.133333-6.4l-8.533334-4.266667-10.666666 32 8.533333 2.133334 4.266667-4.266667c2.133333 0 6.4 0 12.8 2.133333l38.4 12.8c-2.133333 4.266667-4.266667 8.533333-8.533334 10.666667-2.133333 0-6.4 2.133333-12.8 2.133333v8.533334h23.466667l19.2-51.2-19.2-14.933334z m21.333333-10.666666l12.8-12.8c2.133333-6.4 2.133333-10.666667 0-17.066667-2.133333-6.4-6.4-10.666667-10.666666-12.8-4.266667-2.133333-6.4-2.133333-10.666667-2.133333h-8.533333c0 2.133333-2.133333 2.133333-4.266667 4.266666s-4.266667 6.4-8.533333 8.533334c0 2.133333-2.133333 2.133333-2.133334 2.133333-6.4 8.533333-10.666667 10.666667-14.933333 8.533333-2.133333 0-4.266667-2.133333-4.266667-4.266666-2.133333-4.266667 0-6.4 0-10.666667 2.133333-4.266667 6.4-6.4 10.666667-8.533333 6.4-2.133333 12.8-4.266667 19.2-4.266667v-6.4l-27.733333-6.4-2.133334 6.4 4.266667 2.133333c-4.266667 2.133333-6.4 4.266667-8.533333 6.4-2.133333 2.133333-4.266667 4.266667-4.266667 8.533334-4.266667 6.4-4.266667 12.8-2.133333 19.2 2.133333 6.4 6.4 10.666667 12.8 14.933333 6.4 2.133333 10.666667 2.133333 14.933333 2.133333 4.266667-2.133333 8.533333-6.4 14.933333-12.8 0 0 2.133333 0 2.133334-2.133333 8.533333-8.533333 12.8-12.8 17.066666-10.666667 2.133333 0 2.133333 2.133333 2.133334 4.266667 2.133333 2.133333 0 4.266667 0 8.533333-2.133333 2.133333-4.266667 6.4-8.533334 8.533334-4.266667 2.133333-8.533333 2.133333-14.933333 2.133333v6.4l21.333333 6.4 4.266667-6.4-4.266667-2.133333z m729.6-183.466667l6.4 8.533333 21.333334 21.333334 8.533333 8.533333-8.533333 6.4-12.8 12.8-6.4 6.4-8.533334-8.533333-21.333333-23.466667-6.4-6.4 6.4-6.4 14.933333-12.8 6.4-6.4z m14.933334-23.466667l10.666666-8.533333 8.533334 10.666667 40.533333 42.666666 8.533333 10.666667-8.533333 8.533333-51.2 46.933334-4.266667 4.266666h-6.4c-2.133333-2.133333-6.4-4.266667-12.8-10.666666 0-2.133333 2.133333-2.133333 2.133334-4.266667 2.133333 0 2.133333-2.133333 4.266666-4.266667v-4.266666l6.4 6.4c2.133333 2.133333 2.133333 2.133333 4.266667 2.133333 0 0 2.133333 0 2.133333-2.133333l46.933334-42.666667-40.533334-42.666667-10.666666-12.8zM887.466667 192l-8.533334 8.533333-8.533333-8.533333-29.866667-32L832 149.333333l8.533333-8.533333 8.533334 8.533333 29.866666 32 8.533334 10.666667z m-44.8 17.066667l10.666666-10.666667-19.2-19.2-10.666666 10.666667 19.2 19.2z m-85.333334-149.333334c-2.133333 6.4-2.133333 8.533333-4.266666 12.8v8.533334c-2.133333 4.266667-2.133333 8.533333 0 12.8 0 4.266667 2.133333 8.533333 4.266666 14.933333 2.133333 4.266667 4.266667 10.666667 8.533334 14.933333 4.266667-4.266667 8.533333-6.4 8.533333-6.4 2.133333 0 2.133333 0 4.266667-2.133333l-6.4-6.4s-2.133333-2.133333-2.133334-4.266667c-2.133333-2.133333-2.133333-4.266667-4.266666-8.533333s-2.133333-8.533333-2.133334-12.8c2.133333-4.266667 2.133333-6.4 2.133334-8.533333 2.133333-2.133333 2.133333-4.266667 2.133333-4.266667 0-2.133333 2.133333-2.133333 2.133333-4.266667l-12.8-6.4zM691.2 106.666667H682.666667v4.266666c0 2.133333 0 4.266667-2.133334 10.666667 4.266667 0 6.4 2.133333 10.666667 2.133333 2.133333 2.133333 8.533333 4.266667 19.2 8.533334 12.8 4.266667 21.333333 8.533333 25.6 10.666666 0 4.266667 2.133333 6.4 0 8.533334v4.266666l4.266667-2.133333s4.266667 0 10.666666-2.133333c0-8.533333-2.133333-21.333333-4.266666-36.266667h-12.8v6.4c2.133333 2.133333 2.133333 4.266667 2.133333 10.666667-10.666667-6.4-23.466667-10.666667-34.133333-17.066667 4.266667-2.133333 8.533333-4.266667 12.8-4.266667l21.333333-10.666666s2.133333 0 4.266667-2.133334c-4.266667-4.266667-6.4-8.533333-8.533334-12.8l-2.133333 2.133334s-2.133333 2.133333-6.4 4.266666l-12.8 6.4c-2.133333 2.133333-6.4 4.266667-10.666667 4.266667-2.133333 2.133333-6.4 2.133333-8.533333 4.266667z m2.133333-23.466667c6.4 0 12.8-2.133333 19.2-4.266667 6.4-2.133333 12.8-4.266667 17.066667-6.4 4.266667-4.266667 10.666667-6.4 17.066667-10.666666-4.266667-2.133333-6.4-6.4-8.533334-10.666667l-2.133333 2.133333c-4.266667 2.133333-8.533333 6.4-14.933333 8.533334-4.266667 2.133333-10.666667 4.266667-17.066667 6.4-4.266667 2.133333-10.666667 2.133333-14.933333 2.133333l2.133333 2.133333c0 2.133333 2.133333 6.4 2.133333 10.666667z m-155.733333 4.266667l2.133333-12.8 10.666667-61.866667 2.133333-12.8 12.8 2.133333 57.6 10.666667 12.8 2.133333-2.133333 10.666667-10.666667 66.133333c0 2.133333 0 4.266667-2.133333 4.266667 0 2.133333-2.133333 4.266667-6.4 4.266667h-12.8v-4.266667c0-2.133333 0-4.266667-2.133333-6.4V85.333333c2.133333 0 4.266667 2.133333 6.4 2.133334h4.266666c0-2.133333 0-2.133333 2.133334-4.266667l8.533333-59.733333-57.6-8.533334-2.133333 12.8h2.133333c2.133333 0 4.266667-2.133333 6.4-2.133333 2.133333 2.133333 4.266667 4.266667 4.266667 8.533333 2.133333-2.133333 2.133333-4.266667 2.133333-6.4 0 0 0-2.133333 2.133333-4.266666V19.2c4.266667 2.133333 6.4 4.266667 12.8 4.266667 0 2.133333-2.133333 2.133333-2.133333 4.266666v2.133334l-2.133333 6.4c2.133333-2.133333 6.4-2.133333 6.4-4.266667h2.133333c2.133333 2.133333 4.266667 4.266667 4.266667 6.4 2.133333-4.266667 2.133333-8.533333 2.133333-10.666667l2.133333-2.133333c4.266667 2.133333 8.533333 2.133333 12.8 4.266667-2.133333 0-2.133333 2.133333-2.133333 2.133333l-2.133333 6.4c0 4.266667-2.133333 6.4-2.133334 8.533333l-4.266666 6.4c4.266667 8.533333 6.4 14.933333 6.4 14.933334v2.133333c-2.133333 2.133333-6.4 4.266667-10.666667 8.533333v-6.4l-2.133333-6.4c-4.266667 6.4-8.533333 10.666667-8.533334 10.666667-2.133333 2.133333-4.266667 4.266667-6.4 4.266667l-2.133333-2.133334c-2.133333-2.133333-4.266667-2.133333-6.4-6.4 4.266667-2.133333 6.4-4.266667 8.533333-6.4 2.133333-4.266667 4.266667-6.4 6.4-8.533333l2.133334-4.266667c0-4.266667-2.133333-6.4-2.133334-8.533333 0-2.133333-2.133333-4.266667-4.266666-8.533333-2.133333 4.266667-4.266667 6.4-4.266667 8.533333l-2.133333 2.133333c2.133333 4.266667 4.266667 10.666667 6.4 14.933334l-12.8 6.4v-8.533334c-2.133333 2.133333-2.133333 4.266667-4.266667 4.266667 0 2.133333-4.266667 4.266667-8.533333 8.533333 0 0 0-2.133333-2.133334-2.133333 0-2.133333-2.133333-4.266667-4.266666-6.4l-2.133334 12.8-2.133333 12.8-12.8-2.133333z m17.066667-25.6c4.266667-2.133333 6.4-4.266667 6.4-6.4 2.133333-2.133333 4.266667-4.266667 6.4-8.533334-2.133333-6.4-4.266667-10.666667-4.266667-12.8l-2.133333-4.266666-6.4 32z m-115.2-2.133334l21.333333-4.266666-2.133333-10.666667-21.333334 4.266667 2.133334 10.666666z m-4.266667-21.333333l23.466667-4.266667-2.133334-12.8-23.466666 4.266667 2.133333 12.8z m-27.733333 27.733333l19.2-4.266666-2.133334-10.666667-19.2 2.133333 2.133334 12.8z m-21.333334-44.8l10.666667-2.133333 21.333333-2.133333V10.666667l-2.133333-8.533334 12.8-2.133333 2.133333 8.533333v6.4l27.733334-4.266666 8.533333-2.133334v8.533334l6.4 40.533333 2.133333 10.666667-12.8 2.133333v-2.133333l-21.333333 2.133333 2.133333 10.666667v2.133333c0 2.133333 2.133333 2.133333 4.266667 2.133333l12.8-2.133333c4.266667 0 8.533333-2.133333 8.533333-2.133333 2.133333 0 4.266667-2.133333 6.4-2.133334v-10.666666c6.4 2.133333 10.666667 4.266667 14.933334 4.266666-2.133333 6.4-2.133333 12.8-4.266667 12.8 0 2.133333-2.133333 4.266667-4.266667 4.266667 0 2.133333-2.133333 2.133333-6.4 2.133333-2.133333 2.133333-8.533333 2.133333-14.933333 2.133334-6.4 2.133333-10.666667 2.133333-14.933333 2.133333-4.266667 2.133333-6.4 2.133333-8.533334 0-2.133333 0-4.266667-2.133333-4.266666-2.133333 0-2.133333-2.133333-4.266667-2.133334-6.4l-2.133333-14.933334-19.2 4.266667-12.8 2.133333-2.133333-8.533333-6.4-40.533333-2.133334-8.533334z m17.066667 21.333334l19.2-2.133334-2.133333-12.8-19.2 4.266667 2.133333 10.666667z m-151.466667 57.6l-2.133333-6.4-2.133333-6.4 57.6-29.866667 6.4 6.4 2.133333 4.266667 12.8-6.4-4.266667-4.266667-4.266666-10.666667-4.266667-6.4-8.533333 6.4-27.733334 12.8c2.133333 0 2.133333-2.133333 2.133334-2.133333-2.133333-2.133333-6.4-2.133333-12.8-4.266667-2.133333 4.266667-4.266667 6.4-4.266667 8.533334l-2.133333 2.133333c2.133333 0 4.266667 2.133333 6.4 2.133333l-23.466667 12.8-10.666667 4.266667 2.133334 6.4 6.4 10.666667 2.133333 4.266666 8.533333-4.266666zM285.866667 128c-4.266667 8.533333-12.8 14.933333-21.333334 23.466667l4.266667 2.133333c2.133333 0 4.266667 2.133333 6.4 4.266667l10.666667-10.666667c2.133333-4.266667 6.4-8.533333 8.533333-12.8 4.266667-6.4 6.4-10.666667 8.533333-14.933333l2.133334 2.133333v4.266667c2.133333 2.133333 2.133333 4.266667 0 4.266666 0 2.133333-2.133333 4.266667-8.533334 6.4l4.266667 2.133334c2.133333 0 4.266667 2.133333 6.4 6.4 6.4-4.266667 10.666667-6.4 12.8-10.666667v-8.533333c-2.133333-2.133333-2.133333-4.266667-4.266667-8.533334-2.133333-2.133333-4.266667-6.4-4.266666-6.4 0-2.133333-2.133333-2.133333-2.133334-4.266666l2.133334-4.266667c4.266667 4.266667 6.4 8.533333 10.666666 10.666667 4.266667 2.133333 6.4 4.266667 10.666667 4.266666 4.266667 2.133333 10.666667 2.133333 19.2 4.266667v-8.533333c2.133333-2.133333 2.133333-4.266667 2.133333-6.4h-17.066666l-12.8-6.4-6.4-6.4 6.4-12.8c-4.266667-2.133333-8.533333-2.133333-8.533334-2.133334-2.133333 0-4.266667-2.133333-4.266666-2.133333l-2.133334 6.4c-2.133333 2.133333-4.266667 8.533333-8.533333 17.066667l-2.133333-2.133334c-2.133333 0-4.266667-2.133333-8.533334-2.133333 2.133333-2.133333 4.266667-6.4 6.4-10.666667h-4.266666l12.8-6.4 8.533333-4.266666-4.266667-10.666667-8.533333 4.266667-38.4 21.333333-8.533333 2.133333 6.4 10.666667 6.4-4.266667 12.8-6.4c-4.266667 6.4-10.666667 12.8-14.933334 17.066667-4.266667 2.133333-8.533333 6.4-10.666666 6.4 4.266667 2.133333 6.4 4.266667 6.4 4.266667l4.266666 4.266666 19.2-19.2-6.4 12.8-8.533333 8.533334c-2.133333 2.133333-6.4 4.266667-8.533333 6.4 4.266667 2.133333 6.4 4.266667 6.4 4.266666l4.266666 4.266667c6.4-6.4 10.666667-12.8 12.8-17.066667 4.266667-4.266667 6.4-8.533333 10.666667-14.933333l2.133333 2.133333c-2.133333 4.266667-6.4 10.666667-10.666666 17.066667z m-113.066667 108.8l42.666667-44.8-49.066667-49.066667-42.666667 44.8 49.066667 49.066667zM106.666667 192l6.4-8.533333 46.933333-46.933334 6.4-8.533333 8.533333 8.533333 49.066667 46.933334 8.533333 6.4-8.533333 10.666666v-2.133333l-44.8 44.8 2.133333 2.133333-8.533333 8.533334-8.533333-8.533334-51.2-46.933333L106.666667 192z m53.333333 32l8.533333-6.4 8.533334-10.666667-10.666667-8.533333-6.4 6.4-6.4 6.4-8.533333-6.4 6.4-6.4 8.533333-8.533333-8.533333-6.4-8.533334 8.533333-6.4 8.533333L128 192l6.4-6.4 27.733333-27.733333 6.4-8.533334 8.533334 6.4-6.4 6.4-10.666667 12.8 8.533333 6.4 8.533334-8.533333 4.266666-6.4 8.533334 8.533333-6.4 4.266667h12.8v8.533333l6.4-6.4 6.4 6.4-6.4 6.4-27.733334 29.866667-6.4 6.4-8.533333-6.4zM192 189.866667h-12.8c2.133333-2.133333 2.133333-4.266667 2.133333-6.4l-6.4 4.266666 10.666667 10.666667 6.4-8.533333z m763.733333 268.8c-2.133333-2.133333 0-4.266667 0-6.4 2.133333 0 6.4-2.133333 10.666667-2.133334l27.733333-6.4h10.666667c2.133333 2.133333 4.266667 2.133333 4.266667 6.4l8.533333-2.133333-4.266667-32-10.666666 2.133333c2.133333 2.133333 0 4.266667 0 6.4-2.133333 0-6.4 2.133333-10.666667 2.133334l-27.733333 6.4h-10.666667c-2.133333-2.133333-4.266667-2.133333-4.266667-6.4l-8.533333 2.133333 6.4 32 8.533333-2.133333z m4.266667 83.2c0-4.266667 0-6.4 2.133333-6.4 2.133333-2.133333 4.266667-2.133333 10.666667-2.133334l27.733333-2.133333h12.8c0 2.133333 2.133333 4.266667 2.133334 6.4h8.533333l-2.133333-32h-8.533334c0 2.133333 0 4.266667-2.133333 6.4-2.133333 0-4.266667 2.133333-10.666667 2.133333h-12.8l-2.133333-23.466666 12.8-2.133334c6.4 0 10.666667 0 10.666667 2.133334 2.133333 0 4.266667 2.133333 4.266666 4.266666h8.533334l-2.133334-32h-10.666666c2.133333 4.266667 0 6.4 0 6.4h-12.8l-27.733334 2.133334h-10.666666c-2.133333-2.133333-2.133333-2.133333-2.133334-6.4h-10.666666l2.133333 34.133333 8.533333-2.133333c0-2.133333 2.133333-4.266667 4.266667-6.4 4.266667-2.133333 10.666667-2.133333 17.066667-2.133334l2.133333 25.6h-8.533333c-4.266667 0-8.533333 0-10.666667-2.133333-2.133333 0-2.133333-2.133333-2.133333-4.266667h-8.533334l2.133334 32h8.533333z m-8.533333 12.8c0 2.133333-2.133333 4.266667-4.266667 6.4v8.533333c-2.133333 10.666667 0 17.066667 6.4 25.6 8.533333 6.4 17.066667 10.666667 27.733333 10.666667 10.666667 2.133333 21.333333 0 27.733334-6.4 8.533333-6.4 12.8-12.8 12.8-23.466667 2.133333-8.533333 0-14.933333-2.133334-19.2-4.266667-6.4-8.533333-10.666667-17.066666-14.933333l-4.266667 6.4c4.266667 4.266667 8.533333 8.533333 10.666667 12.8 2.133333 4.266667 4.266667 6.4 4.266666 10.666666-2.133333 6.4-4.266667 10.666667-10.666666 14.933334-4.266667 2.133333-10.666667 2.133333-19.2 2.133333s-17.066667-2.133333-21.333334-6.4c-4.266667-4.266667-6.4-8.533333-6.4-14.933333 0-4.266667 2.133333-6.4 6.4-10.666667s8.533333-6.4 14.933334-8.533333v-6.4l-27.733334 6.4-2.133333 4.266666 4.266667 2.133334z m-27.733334 134.4c2.133333-2.133333 2.133333-4.266667 4.266667-4.266667 2.133333-2.133333 6.4 0 10.666667 2.133333l27.733333 8.533334 8.533333 4.266666c2.133333 2.133333 2.133333 4.266667 2.133334 8.533334l8.533333 2.133333 10.666667-32-8.533334-2.133333-4.266666 4.266666c-2.133333 0-6.4 0-10.666667-2.133333l-12.8-4.266667 2.133333-2.133333c0-2.133333 2.133333-4.266667 4.266667-4.266667 2.133333-2.133333 6.4-2.133333 10.666667 0l2.133333-6.4-34.133333-10.666666-2.133334 4.266666c4.266667 2.133333 8.533333 4.266667 8.533334 6.4 2.133333 2.133333 2.133333 4.266667 0 8.533334v2.133333l-10.666667-4.266667c-4.266667 0-6.4-2.133333-6.4-4.266666v-6.4c2.133333-4.266667 4.266667-8.533333 8.533333-10.666667 4.266667-4.266667 8.533333-6.4 14.933334-6.4l-2.133334-6.4-21.333333 2.133333-19.2 51.2 8.533333 2.133334zM896 746.666667c-4.266667-8.533333-4.266667-19.2 2.133333-27.733334 4.266667-8.533333 10.666667-14.933333 19.2-19.2 8.533333-2.133333 19.2-2.133333 29.866667 4.266667 10.666667 4.266667 17.066667 10.666667 21.333333 19.2 2.133333 8.533333 2.133333 19.2-2.133333 27.733333-4.266667 10.666667-10.666667 17.066667-21.333333 19.2-8.533333 2.133333-17.066667 2.133333-27.733334-2.133333-10.666667-6.4-17.066667-12.8-21.333333-21.333333z m21.333333-32c-6.4 0-8.533333 4.266667-12.8 8.533333-2.133333 4.266667 0 8.533333 2.133334 14.933333 4.266667 4.266667 8.533333 8.533333 17.066666 12.8 8.533333 4.266667 17.066667 4.266667 21.333334 4.266667 6.4 0 10.666667-2.133333 12.8-8.533333 2.133333-4.266667 2.133333-8.533333-2.133334-14.933334-2.133333-4.266667-8.533333-8.533333-17.066666-12.8s-14.933333-4.266667-21.333334-4.266666z m-87.466666 110.933333c2.133333-2.133333 4.266667-2.133333 6.4-2.133333 2.133333 0 4.266667 2.133333 8.533333 6.4l21.333333 19.2c4.266667 4.266667 6.4 6.4 6.4 8.533333 0 2.133333 0 4.266667-2.133333 6.4l6.4 6.4 17.066667-19.2-6.4-4.266667c-2.133333 2.133333-4.266667 2.133333-6.4 2.133334-2.133333 0-4.266667-2.133333-8.533334-6.4l-25.6-23.466667 61.866667 14.933333 8.533333-8.533333-36.266666-34.133333c-4.266667-4.266667-6.4-6.4-6.4-8.533334-2.133333-2.133333 0-4.266667 2.133333-6.4l-6.4-4.266666-17.066667 17.066666 6.4 6.4c2.133333-2.133333 4.266667-4.266667 6.4-4.266666 0 0 4.266667 4.266667 8.533334 6.4l14.933333 14.933333-46.933333-12.8-19.2 21.333333 6.4 4.266667z m-46.933334 44.8c0-10.666667 4.266667-19.2 12.8-25.6 8.533333-6.4 17.066667-8.533333 27.733334-6.4 8.533333 0 17.066667 6.4 25.6 14.933333 6.4 8.533333 10.666667 17.066667 8.533333 27.733334 0 8.533333-4.266667 17.066667-12.8 23.466666-8.533333 6.4-17.066667 8.533333-27.733333 8.533334-8.533333-2.133333-17.066667-6.4-25.6-17.066667-6.4-8.533333-8.533333-17.066667-8.533334-25.6z m34.133334-21.333333c-6.4-2.133333-10.666667-2.133333-14.933334 2.133333-4.266667 2.133333-6.4 6.4-4.266666 12.8 0 6.4 4.266667 12.8 8.533333 19.2 6.4 6.4 12.8 12.8 17.066667 14.933333 6.4 2.133333 10.666667 0 14.933333-2.133333 4.266667-4.266667 6.4-8.533333 4.266667-14.933333 0-4.266667-2.133333-10.666667-8.533334-19.2-6.4-4.266667-10.666667-10.666667-17.066666-12.8zM684.8 938.666667h6.4c0-6.4 0-10.666667 2.133333-12.8 0-4.266667 4.266667-6.4 6.4-8.533334h2.133334l19.2 34.133334c2.133333 6.4 4.266667 8.533333 4.266666 10.666666-2.133333 2.133333-2.133333 4.266667-6.4 6.4l4.266667 6.4 29.866667-14.933333-4.266667-6.4h-6.4c-2.133333-2.133333-4.266667-4.266667-6.4-8.533333l-19.2-36.266667c4.266667-2.133333 8.533333-4.266667 12.8-2.133333 2.133333 0 6.4 2.133333 12.8 6.4l4.266667-6.4-19.2-14.933334-46.933334 25.6 4.266667 21.333334z m-38.4-10.666667l14.933333-4.266667 36.266667 42.666667c4.266667 4.266667 8.533333 6.4 12.8 6.4l2.133333 8.533333-29.866666 10.666667-2.133334-8.533333c2.133333 0 4.266667-2.133333 4.266667-2.133334v-4.266666c0-2.133333 0-2.133333-2.133333-2.133334l-6.4-8.533333-19.2 8.533333 2.133333 8.533334v2.133333c0 2.133333 2.133333 4.266667 2.133333 4.266667h6.4l4.266667 6.4-25.6 10.666666-4.266667-8.533333c4.266667-2.133333 6.4-6.4 6.4-14.933333l-2.133333-55.466667z m10.666667 14.933333v21.333334l12.8-4.266667-12.8-17.066667z m-104.533334 4.266667l38.4-4.266667c8.533333-2.133333 17.066667-2.133333 21.333334 0 4.266667 4.266667 8.533333 8.533333 8.533333 14.933334 2.133333 4.266667 0 8.533333-2.133333 12.8-2.133333 2.133333-4.266667 6.4-10.666667 8.533333l17.066667 14.933333c2.133333 2.133333 4.266667 4.266667 6.4 4.266667 2.133333 0 4.266667 2.133333 6.4 0v8.533333l-19.2 4.266667-27.733334-27.733333-6.4 2.133333 2.133334 8.533333c0 4.266667 2.133333 8.533333 4.266666 10.666667 0 0 2.133333 2.133333 6.4 0v10.666667l-32 4.266666-2.133333-8.533333c4.266667 0 6.4-2.133333 6.4-4.266667 2.133333 0 2.133333-4.266667 0-10.666666l-4.266667-27.733334c0-4.266667-2.133333-8.533333-4.266666-10.666666 0 0-2.133333-2.133333-6.4 0l-2.133334-10.666667z m32 27.733333h2.133334c6.4-2.133333 10.666667-2.133333 14.933333-4.266666 2.133333-4.266667 2.133333-6.4 2.133333-10.666667 0-2.133333-2.133333-6.4-4.266666-6.4-4.266667-2.133333-6.4-2.133333-12.8-2.133333-2.133333 0-4.266667 2.133333-4.266667 2.133333-2.133333 2.133333-2.133333 4.266667 0 8.533333l2.133333 12.8z m-91.733333-14.933333c6.4-6.4 14.933333-10.666667 25.6-10.666667s19.2 2.133333 25.6 8.533334c6.4 6.4 10.666667 17.066667 10.666667 27.733333s-2.133333 21.333333-8.533334 27.733333c-6.4 6.4-14.933333 10.666667-25.6 10.666667s-19.2-2.133333-25.6-8.533333c-8.533333-6.4-10.666667-17.066667-10.666666-27.733334-2.133333-10.666667 2.133333-21.333333 8.533333-27.733333z m38.4 4.266667c-4.266667-4.266667-8.533333-6.4-12.8-6.4-6.4 0-10.666667 2.133333-12.8 8.533333-2.133333 4.266667-4.266667 12.8-4.266667 21.333333s2.133333 14.933333 6.4 21.333334c2.133333 4.266667 6.4 6.4 12.8 6.4 4.266667 0 8.533333-2.133333 12.8-8.533334 2.133333-4.266667 4.266667-12.8 2.133334-21.333333 0-8.533333-2.133333-14.933333-4.266667-21.333333z m-106.666667-21.333334l36.266667 4.266667c8.533333 0 12.8 4.266667 17.066667 8.533333 4.266667 4.266667 6.4 8.533333 4.266666 17.066667 0 6.4-2.133333 10.666667-8.533333 12.8-4.266667 4.266667-10.666667 4.266667-17.066667 4.266667l-12.8-2.133334v19.2c0 2.133333 2.133333 2.133333 6.4 2.133334l-2.133333 8.533333-32-2.133333 2.133333-10.666667c2.133333 2.133333 4.266667 0 6.4 0 0-2.133333 2.133333-6.4 2.133334-10.666667l4.266666-27.733333v-12.8c-2.133333 0-4.266667-2.133333-6.4-2.133333v-8.533334z m21.333334 36.266667h2.133333c6.4 2.133333 10.666667 0 12.8-2.133333 2.133333 0 4.266667-4.266667 4.266667-8.533334s0-6.4-2.133334-8.533333c-2.133333-2.133333-4.266667-4.266667-8.533333-4.266667h-4.266667c-2.133333 2.133333-2.133333 4.266667-2.133333 8.533334l-2.133333 14.933333z m-89.6-57.6l36.266666 10.666667c8.533333 2.133333 14.933333 6.4 17.066667 10.666666 4.266667 4.266667 4.266667 8.533333 4.266667 14.933334-2.133333 6.4-4.266667 8.533333-8.533334 10.666666-2.133333 2.133333-6.4 4.266667-12.8 4.266667l8.533334 21.333333c0 2.133333 0 4.266667 2.133333 6.4 2.133333 0 4.266667 2.133333 6.4 2.133334l-4.266667 8.533333-19.2-6.4-10.666666-34.133333-6.4-2.133334-4.266667 8.533334c0 4.266667-2.133333 8.533333 0 10.666666 0 2.133333 2.133333 2.133333 4.266667 4.266667l-2.133334 8.533333-32-10.666666 2.133334-8.533334c4.266667 2.133333 6.4 2.133333 8.533333 0l4.266667-8.533333 8.533333-27.733333c0-6.4 2.133333-8.533333 0-10.666667 0-2.133333-2.133333-4.266667-4.266667-4.266667l2.133334-8.533333z m14.933333 36.266667l2.133333 2.133333h2.133334c6.4 2.133333 10.666667 2.133333 12.8 0 4.266667 0 6.4-2.133333 8.533333-6.4 0-2.133333 0-6.4-2.133333-8.533333-2.133333-2.133333-4.266667-4.266667-8.533334-6.4h-6.4c-2.133333 2.133333-4.266667 4.266667-4.266666 6.4l-4.266667 12.8z m-74.666667-53.333334c8.533333-4.266667 19.2-2.133333 27.733334 2.133334 10.666667 4.266667 17.066667 10.666667 19.2 21.333333 2.133333 8.533333 2.133333 17.066667-4.266667 27.733333-4.266667 10.666667-12.8 17.066667-21.333333 21.333334-8.533333 2.133333-17.066667 2.133333-27.733334-2.133334-8.533333-6.4-14.933333-12.8-19.2-21.333333-2.133333-10.666667 0-19.2 4.266667-29.866667 6.4-10.666667 12.8-17.066667 21.333333-19.2z m32 21.333334c0-4.266667-2.133333-8.533333-8.533333-10.666667-4.266667-4.266667-8.533333-2.133333-14.933333 0-4.266667 4.266667-8.533333 8.533333-12.8 17.066667-4.266667 8.533333-6.4 14.933333-6.4 21.333333 2.133333 6.4 4.266667 8.533333 8.533333 12.8 4.266667 2.133333 10.666667 2.133333 14.933333-2.133333 4.266667-2.133333 10.666667-8.533333 12.8-17.066667 4.266667-8.533333 6.4-14.933333 6.4-21.333333z m-53.333333-38.4c0-4.266667-2.133333-6.4-2.133333-8.533334-2.133333-2.133333-4.266667-4.266667-6.4-4.266666-8.533333-6.4-17.066667-8.533333-25.6-6.4-10.666667 0-17.066667 6.4-25.6 14.933333-6.4 8.533333-8.533333 19.2-8.533334 27.733333s6.4 17.066667 12.8 23.466667c6.4 4.266667 12.8 6.4 19.2 6.4 6.4 2.133333 14.933333 0 21.333334-4.266667l-4.266667-8.533333c-4.266667 2.133333-8.533333 4.266667-14.933333 4.266667-4.266667 0-8.533333-2.133333-12.8-4.266667-4.266667-4.266667-6.4-8.533333-6.4-14.933333 0-6.4 4.266667-12.8 8.533333-19.2 6.4-6.4 10.666667-10.666667 17.066667-12.8 6.4-2.133333 10.666667-2.133333 14.933333 2.133333 4.266667 2.133333 6.4 6.4 6.4 10.666667 0 6.4 0 10.666667-2.133333 17.066666l8.533333 2.133334 8.533333-25.6-4.266666-4.266667-4.266667 4.266667z m-106.666667-102.4l21.333334 25.6c8.533333 8.533333 10.666667 19.2 10.666666 27.733333-2.133333 8.533333-6.4 17.066667-14.933333 23.466667-10.666667 10.666667-19.2 12.8-27.733333 12.8-8.533333-2.133333-17.066667-6.4-25.6-17.066667L113.066667 832l6.4-4.266667c2.133333 2.133333 4.266667 2.133333 6.4 2.133334l8.533333-4.266667 21.333333-19.2c6.4-2.133333 8.533333-6.4 8.533334-8.533333 0 0 0-2.133333-2.133334-4.266667l6.4-8.533333z m-25.6 53.333333c-4.266667 2.133333-6.4 4.266667-6.4 6.4 0 0 0 2.133333 2.133334 4.266667 4.266667 4.266667 10.666667 8.533333 14.933333 8.533333 6.4-2.133333 12.8-4.266667 19.2-8.533333 8.533333-6.4 12.8-12.8 12.8-17.066667 2.133333-6.4 0-12.8-4.266667-17.066667 0-2.133333-2.133333-2.133333-4.266666-2.133333 0 0-2.133333 0-6.4 2.133333l-27.733334 23.466667z m-4.266666-78.933333c2.133333 2.133333 2.133333 4.266667 2.133333 6.4l-8.533333 8.533333-23.466667 17.066667c-4.266667 2.133333-8.533333 4.266667-10.666667 4.266666l-4.266666-4.266666-8.533334 6.4 19.2 25.6 8.533334-4.266667c-2.133333-4.266667-2.133333-6.4-2.133334-6.4 0-2.133333 4.266667-6.4 8.533334-8.533333l23.466666-17.066667c4.266667-2.133333 6.4-4.266667 8.533334-4.266667 2.133333 0 4.266667 2.133333 6.4 4.266667l6.4-6.4-19.2-25.6-6.4 4.266667z m-27.733334-68.266667L128 725.333333c4.266667 8.533333 6.4 14.933333 6.4 19.2 0 6.4-4.266667 10.666667-10.666667 12.8-4.266667 2.133333-8.533333 4.266667-12.8 2.133334-4.266667 0-6.4-2.133333-10.666666-6.4l-10.666667 21.333333c0 2.133333-2.133333 4.266667-2.133333 6.4 0 2.133333 0 4.266667 2.133333 6.4l-8.533333 4.266667-8.533334-19.2 17.066667-32-4.266667-6.4-6.4 4.266666c-6.4 2.133333-8.533333 4.266667-10.666666 6.4 0 2.133333 0 4.266667 2.133333 6.4l-8.533333 4.266667-14.933334-27.733333 6.4-4.266667c2.133333 2.133333 4.266667 4.266667 6.4 4.266667 2.133333 0 4.266667-2.133333 10.666667-4.266667l23.466667-12.8c6.4-4.266667 8.533333-6.4 10.666666-6.4 0-2.133333 0-4.266667-2.133333-8.533333l8.533333-4.266667z m-17.066666 38.4h2.133333v2.133333c4.266667 6.4 6.4 8.533333 10.666667 10.666667 2.133333 2.133333 6.4 2.133333 8.533333 0 4.266667-2.133333 4.266667-4.266667 6.4-6.4 0-4.266667 0-6.4-2.133333-10.666667-2.133333-2.133333-4.266667-4.266667-6.4-4.266666 0 0-2.133333 0-6.4 2.133333l-12.8 6.4z m6.4-55.466667v-8.533333c0-2.133333-2.133333-4.266667-2.133334-6.4-4.266667-10.666667-10.666667-14.933333-19.2-19.2s-17.066667-2.133333-27.733333 0c-10.666667 4.266667-19.2 10.666667-23.466667 19.2-4.266667 6.4-6.4 14.933333-2.133333 23.466667 0 4.266667 2.133333 6.4 4.266667 8.533333 2.133333 2.133333 6.4 4.266667 8.533333 6.4l-4.266667 4.266667 4.266667 10.666666 17.066667-8.533333H64c2.133333 0 2.133333 2.133333 4.266667 4.266667l8.533333-4.266667-10.666667-27.733333-8.533333 4.266666c2.133333 2.133333 2.133333 4.266667 0 6.4 0 0-2.133333 2.133333-4.266667 2.133334-4.266667 2.133333-6.4 2.133333-10.666666 0-2.133333 0-4.266667-4.266667-6.4-6.4-2.133333-6.4 0-10.666667 2.133333-14.933334 4.266667-4.266667 10.666667-6.4 19.2-10.666666 8.533333-2.133333 14.933333-4.266667 21.333333-2.133334 4.266667 0 8.533333 2.133333 10.666667 6.4v12.8c-2.133333 4.266667-6.4 8.533333-10.666667 12.8l6.4 6.4 19.2-14.933333-2.133333-4.266667h-2.133333z m644.266666 219.733334c2.133333-2.133333 4.266667-2.133333 6.4-2.133334l8.533334 8.533334 14.933333 23.466666c2.133333 6.4 4.266667 8.533333 4.266667 10.666667 0 2.133333-2.133333 4.266667-4.266667 6.4l4.266667 6.4 27.733333-17.066667-4.266667-8.533333c-2.133333 2.133333-4.266667 2.133333-6.4 2.133333-2.133333 0-4.266667-4.266667-6.4-8.533333l-14.933333-23.466667c-4.266667-4.266667-6.4-8.533333-6.4-10.666666 2.133333-2.133333 2.133333-4.266667 4.266667-4.266667l-4.266667-8.533333-27.733333 17.066666 4.266666 8.533334zM887.466667 518.4c0 177.066667-125.866667 324.266667-292.266667 362.666667-55.466667-19.2-104.533333-66.133333-142.933333-128h34.133333c166.4 0 309.333333-55.466667 362.666667-132.266667-74.666667 59.733333-194.133333 100.266667-330.666667 100.266667-29.866667 0-57.6-2.133333-87.466667-6.4-8.533333-19.2-14.933333-38.4-21.333333-57.6 38.4 6.4 81.066667 8.533333 123.733333 6.4 164.266667-6.4 302.933333-68.266667 352-147.2 2.133333 0 2.133333 0 2.133334 2.133333zM526.933333 889.6H512c-155.733333 0-290.133333-93.866667-347.733333-230.4 34.133333 27.733333 78.933333 51.2 134.4 68.266667 25.6 57.6 59.733333 100.266667 100.266666 125.866666-29.866667-32-53.333333-70.4-72.533333-117.333333 23.466667 6.4 46.933333 10.666667 70.4 12.8 32 70.4 76.8 121.6 130.133333 140.8zM140.8 565.333333c-2.133333-14.933333-2.133333-32-2.133333-49.066666 0-155.733333 96-288 232.533333-343.466667-68.266667 64-115.2 187.733333-115.2 328.533333 0 32 2.133333 61.866667 6.4 91.733334-34.133333-12.8-64-29.866667-89.6-51.2 21.333333 27.733333 53.333333 53.333333 93.866667 72.533333 4.266667 19.2 8.533333 40.533333 14.933333 57.6-64-25.6-113.066667-61.866667-140.8-106.666667zM499.2 145.066667h12.8c181.333333 0 334.933333 130.133333 369.066667 300.8-49.066667 100.266667-198.4 179.2-377.6 183.466666-34.133333 2.133333-68.266667 0-100.266667-2.133333-10.666667-42.666667-14.933333-87.466667-14.933333-134.4 0-130.133333 42.666667-249.6 108.8-320-83.2 51.2-142.933333 189.866667-142.933334 349.866667 0 34.133333 2.133333 66.133333 8.533334 98.133333-23.466667-4.266667-46.933333-10.666667-68.266667-17.066667-2.133333-23.466667-4.266667-49.066667-4.266667-72.533333 0-187.733333 87.466667-343.466667 209.066667-386.133333z m-117.333333 561.066666c-6.4-19.2-10.666667-38.4-14.933334-57.6-25.6-6.4-46.933333-12.8-68.266666-21.333333l12.8 57.6c21.333333 8.533333 44.8 17.066667 70.4 21.333333z" fill="#00544A" p-id="3094"></path><path d="M919.466667 518.4c0 110.933333-46.933333 213.333333-119.466667 285.866667-74.666667 72.533333-177.066667 119.466667-288 119.466666-113.066667 0-215.466667-44.8-288-117.333333-74.666667-76.8-119.466667-177.066667-119.466667-288 0-110.933333 44.8-213.333333 119.466667-285.866667C298.666667 160 398.933333 115.2 512 115.2c113.066667 0 213.333333 44.8 288 119.466667 74.666667 70.4 119.466667 170.666667 119.466667 283.733333z m-10.666667 0c0-108.8-44.8-206.933333-117.333333-277.333333-70.4-74.666667-170.666667-117.333333-279.466667-117.333334-110.933333 0-209.066667 44.8-281.6 115.2-72.533333 70.4-115.2 170.666667-115.2 279.466667s44.8 206.933333 115.2 279.466667c72.533333 70.4 170.666667 115.2 281.6 115.2 108.8 0 209.066667-44.8 281.6-115.2 70.4-72.533333 115.2-170.666667 115.2-279.466667z" fill="#00544A" p-id="3095"></path></svg>